<mxfile host="app.diagrams.net" modified="2021-03-18T18:03:37.196Z" agent="5.0 (Windows NT 10.0; Win64; x64) AppleWebKit/537.36 (KHTML, like Gecko) Chrome/87.0.4280.141 Safari/537.36 OPR/73.0.3856.415" etag="AbuRi9IQCL8bfrzRLBRM" version="14.4.8" type="github">
  <diagram id="6a731a19-8d31-9384-78a2-239565b7b9f0" name="Page-1">
    <mxGraphModel dx="2273" dy="1337" grid="1" gridSize="10" guides="1" tooltips="1" connect="1" arrows="1" fold="1" page="1" pageScale="1" pageWidth="1169" pageHeight="827" background="#ffffff" math="0" shadow="0">
      <root>
        <mxCell id="0" />
        <mxCell id="1" parent="0" />
        <mxCell id="308n4q9hR7jjv0GFG2vF-87" style="edgeStyle=orthogonalEdgeStyle;rounded=0;orthogonalLoop=1;jettySize=auto;html=1;exitX=0.5;exitY=1;exitDx=0;exitDy=0;exitPerimeter=0;entryX=0.5;entryY=0;entryDx=0;entryDy=0;" edge="1" parent="1" source="2" target="308n4q9hR7jjv0GFG2vF-86">
          <mxGeometry relative="1" as="geometry" />
        </mxCell>
        <mxCell id="2" value="&lt;b&gt;&lt;font style=&quot;font-size: 17px&quot;&gt;INÍCIO&lt;/font&gt;&lt;/b&gt;" style="shape=mxgraph.flowchart.terminator;strokeWidth=2;gradientDirection=north;fontStyle=0;html=1;fillColor=#d5e8d4;strokeColor=#82b366;" parent="1" vertex="1">
          <mxGeometry x="432.5" y="170" width="170" height="70" as="geometry" />
        </mxCell>
        <mxCell id="54" value="" style="edgeStyle=elbowEdgeStyle;elbow=horizontal;exitX=0;exitY=0.5;exitPerimeter=0;entryX=0.095;entryY=0.5;entryPerimeter=0;fontStyle=1;strokeColor=#003366;strokeWidth=1;html=1;" parent="1" source="37" edge="1">
          <mxGeometry width="100" height="100" as="geometry">
            <mxPoint y="100" as="sourcePoint" />
            <mxPoint x="255.60500000000002" y="290" as="targetPoint" />
            <Array as="points">
              <mxPoint x="120" y="970" />
            </Array>
          </mxGeometry>
        </mxCell>
        <mxCell id="308n4q9hR7jjv0GFG2vF-56" value="&lt;b&gt;ANALISAR ONDE&lt;br&gt;ESTÁ O PROBLEMA!&lt;br&gt;&lt;/b&gt;" style="rounded=0;whiteSpace=wrap;html=1;" vertex="1" parent="1">
          <mxGeometry x="457.5" y="540" width="120" height="60" as="geometry" />
        </mxCell>
        <mxCell id="308n4q9hR7jjv0GFG2vF-57" value="" style="endArrow=classic;html=1;exitX=0.5;exitY=1;exitDx=0;exitDy=0;exitPerimeter=0;" edge="1" parent="1">
          <mxGeometry width="50" height="50" relative="1" as="geometry">
            <mxPoint x="517.5" y="600" as="sourcePoint" />
            <mxPoint x="517.5" y="670" as="targetPoint" />
          </mxGeometry>
        </mxCell>
        <mxCell id="308n4q9hR7jjv0GFG2vF-61" style="edgeStyle=orthogonalEdgeStyle;rounded=0;orthogonalLoop=1;jettySize=auto;html=1;exitX=0.75;exitY=1;exitDx=0;exitDy=0;entryX=0.5;entryY=0;entryDx=0;entryDy=0;" edge="1" parent="1" source="308n4q9hR7jjv0GFG2vF-58" target="308n4q9hR7jjv0GFG2vF-60">
          <mxGeometry relative="1" as="geometry" />
        </mxCell>
        <mxCell id="308n4q9hR7jjv0GFG2vF-62" style="edgeStyle=orthogonalEdgeStyle;rounded=0;orthogonalLoop=1;jettySize=auto;html=1;exitX=0.25;exitY=1;exitDx=0;exitDy=0;entryX=0.5;entryY=0;entryDx=0;entryDy=0;" edge="1" parent="1" source="308n4q9hR7jjv0GFG2vF-58" target="308n4q9hR7jjv0GFG2vF-59">
          <mxGeometry relative="1" as="geometry" />
        </mxCell>
        <mxCell id="308n4q9hR7jjv0GFG2vF-58" value="&lt;b&gt;ONDE ELE ESTÁ?&lt;br&gt;&lt;/b&gt;" style="rounded=0;whiteSpace=wrap;html=1;" vertex="1" parent="1">
          <mxGeometry x="457.5" y="670" width="120" height="60" as="geometry" />
        </mxCell>
        <mxCell id="308n4q9hR7jjv0GFG2vF-67" style="edgeStyle=orthogonalEdgeStyle;rounded=0;orthogonalLoop=1;jettySize=auto;html=1;exitX=0.5;exitY=1;exitDx=0;exitDy=0;entryX=0.5;entryY=0;entryDx=0;entryDy=0;" edge="1" parent="1" source="308n4q9hR7jjv0GFG2vF-59" target="308n4q9hR7jjv0GFG2vF-64">
          <mxGeometry relative="1" as="geometry" />
        </mxCell>
        <mxCell id="308n4q9hR7jjv0GFG2vF-59" value="NA INTERNET" style="rhombus;whiteSpace=wrap;html=1;strokeColor=#d6b656;fillColor=#fff2cc;" vertex="1" parent="1">
          <mxGeometry x="292.5" y="774" width="130" height="80" as="geometry" />
        </mxCell>
        <mxCell id="308n4q9hR7jjv0GFG2vF-66" style="edgeStyle=orthogonalEdgeStyle;rounded=0;orthogonalLoop=1;jettySize=auto;html=1;exitX=0.5;exitY=1;exitDx=0;exitDy=0;entryX=0.5;entryY=0;entryDx=0;entryDy=0;" edge="1" parent="1" source="308n4q9hR7jjv0GFG2vF-60" target="308n4q9hR7jjv0GFG2vF-65">
          <mxGeometry relative="1" as="geometry" />
        </mxCell>
        <mxCell id="308n4q9hR7jjv0GFG2vF-60" value="NA &lt;font style=&quot;font-size: 11px&quot;&gt;PROGRAMAÇÃO&lt;/font&gt;" style="rhombus;whiteSpace=wrap;html=1;strokeColor=#d6b656;fillColor=#fff2cc;" vertex="1" parent="1">
          <mxGeometry x="612.5" y="774" width="130" height="80" as="geometry" />
        </mxCell>
        <mxCell id="308n4q9hR7jjv0GFG2vF-70" style="edgeStyle=orthogonalEdgeStyle;rounded=0;orthogonalLoop=1;jettySize=auto;html=1;exitX=0.5;exitY=1;exitDx=0;exitDy=0;entryX=0.5;entryY=0;entryDx=0;entryDy=0;" edge="1" parent="1" source="308n4q9hR7jjv0GFG2vF-64" target="308n4q9hR7jjv0GFG2vF-68">
          <mxGeometry relative="1" as="geometry" />
        </mxCell>
        <mxCell id="308n4q9hR7jjv0GFG2vF-64" value="LIGUE PARA A OPERADORA&amp;nbsp;" style="shape=hexagon;perimeter=hexagonPerimeter2;whiteSpace=wrap;html=1;fixedSize=1;" vertex="1" parent="1">
          <mxGeometry x="290" y="960" width="135" height="70" as="geometry" />
        </mxCell>
        <mxCell id="308n4q9hR7jjv0GFG2vF-71" style="edgeStyle=orthogonalEdgeStyle;rounded=0;orthogonalLoop=1;jettySize=auto;html=1;exitX=0.5;exitY=1;exitDx=0;exitDy=0;entryX=0.5;entryY=0;entryDx=0;entryDy=0;" edge="1" parent="1" source="308n4q9hR7jjv0GFG2vF-65" target="308n4q9hR7jjv0GFG2vF-69">
          <mxGeometry relative="1" as="geometry" />
        </mxCell>
        <mxCell id="308n4q9hR7jjv0GFG2vF-65" value="VERIFIQUE ONDE ESTÁ O ERRO NO CÓDIGO" style="shape=hexagon;perimeter=hexagonPerimeter2;whiteSpace=wrap;html=1;fixedSize=1;" vertex="1" parent="1">
          <mxGeometry x="610" y="960" width="135" height="70" as="geometry" />
        </mxCell>
        <mxCell id="308n4q9hR7jjv0GFG2vF-75" style="edgeStyle=orthogonalEdgeStyle;rounded=0;orthogonalLoop=1;jettySize=auto;html=1;exitX=0.5;exitY=1;exitDx=0;exitDy=0;entryX=0.5;entryY=0;entryDx=0;entryDy=0;" edge="1" parent="1" source="308n4q9hR7jjv0GFG2vF-68" target="308n4q9hR7jjv0GFG2vF-72">
          <mxGeometry relative="1" as="geometry" />
        </mxCell>
        <mxCell id="308n4q9hR7jjv0GFG2vF-68" value="&lt;b&gt;PEÇA PARA ARRUMAREM A INTERNET&lt;/b&gt;" style="rounded=0;whiteSpace=wrap;html=1;fillColor=#ffe6cc;strokeColor=#d79b00;" vertex="1" parent="1">
          <mxGeometry x="297.5" y="1160" width="120" height="60" as="geometry" />
        </mxCell>
        <mxCell id="308n4q9hR7jjv0GFG2vF-73" style="edgeStyle=orthogonalEdgeStyle;rounded=0;orthogonalLoop=1;jettySize=auto;html=1;exitX=0.5;exitY=1;exitDx=0;exitDy=0;entryX=0.5;entryY=0;entryDx=0;entryDy=0;" edge="1" parent="1" source="308n4q9hR7jjv0GFG2vF-69" target="308n4q9hR7jjv0GFG2vF-72">
          <mxGeometry relative="1" as="geometry" />
        </mxCell>
        <mxCell id="308n4q9hR7jjv0GFG2vF-69" value="&lt;b style=&quot;font-size: 14px&quot;&gt;CONCERTE&lt;br&gt;O CÓDIGO&lt;br&gt;&lt;/b&gt;" style="rounded=0;whiteSpace=wrap;html=1;fillColor=#ffe6cc;strokeColor=#d79b00;" vertex="1" parent="1">
          <mxGeometry x="617.5" y="1160" width="120" height="60" as="geometry" />
        </mxCell>
        <mxCell id="308n4q9hR7jjv0GFG2vF-78" style="edgeStyle=orthogonalEdgeStyle;rounded=0;orthogonalLoop=1;jettySize=auto;html=1;exitX=0.5;exitY=1;exitDx=0;exitDy=0;entryX=0.5;entryY=0;entryDx=0;entryDy=0;" edge="1" parent="1" source="308n4q9hR7jjv0GFG2vF-72" target="308n4q9hR7jjv0GFG2vF-76">
          <mxGeometry relative="1" as="geometry" />
        </mxCell>
        <mxCell id="308n4q9hR7jjv0GFG2vF-80" style="edgeStyle=orthogonalEdgeStyle;rounded=0;orthogonalLoop=1;jettySize=auto;html=1;exitX=1;exitY=0.5;exitDx=0;exitDy=0;entryX=0;entryY=0.5;entryDx=0;entryDy=0;" edge="1" parent="1" source="308n4q9hR7jjv0GFG2vF-72" target="308n4q9hR7jjv0GFG2vF-77">
          <mxGeometry relative="1" as="geometry" />
        </mxCell>
        <mxCell id="308n4q9hR7jjv0GFG2vF-72" value="&lt;b style=&quot;font-size: 14px&quot;&gt;VERIFIQUE SE&lt;br&gt;ESTÁ FUNCIONANDO&lt;br&gt;CORRETAMENTE&lt;br&gt;&lt;/b&gt;" style="rounded=0;whiteSpace=wrap;html=1;strokeColor=#36393d;fillColor=#cce5ff;" vertex="1" parent="1">
          <mxGeometry x="439.5" y="1350" width="155" height="80" as="geometry" />
        </mxCell>
        <mxCell id="308n4q9hR7jjv0GFG2vF-85" style="edgeStyle=orthogonalEdgeStyle;rounded=0;orthogonalLoop=1;jettySize=auto;html=1;exitX=0.5;exitY=1;exitDx=0;exitDy=0;" edge="1" parent="1" source="308n4q9hR7jjv0GFG2vF-76" target="308n4q9hR7jjv0GFG2vF-84">
          <mxGeometry relative="1" as="geometry" />
        </mxCell>
        <mxCell id="308n4q9hR7jjv0GFG2vF-76" value="&lt;b&gt;ESTÁ FUNCIONANDO&lt;br&gt;NORMALMENTE!&lt;/b&gt;" style="rhombus;whiteSpace=wrap;html=1;strokeColor=#9673a6;fillColor=#e1d5e7;" vertex="1" parent="1">
          <mxGeometry x="422.5" y="1560" width="190" height="100" as="geometry" />
        </mxCell>
        <mxCell id="308n4q9hR7jjv0GFG2vF-81" style="edgeStyle=orthogonalEdgeStyle;rounded=0;orthogonalLoop=1;jettySize=auto;html=1;exitX=0.5;exitY=0;exitDx=0;exitDy=0;entryX=1;entryY=0.5;entryDx=0;entryDy=0;" edge="1" parent="1" source="308n4q9hR7jjv0GFG2vF-77" target="308n4q9hR7jjv0GFG2vF-56">
          <mxGeometry relative="1" as="geometry" />
        </mxCell>
        <mxCell id="308n4q9hR7jjv0GFG2vF-77" value="&lt;b&gt;NÃO ESTÁ&lt;br&gt;FUNCIONANDO!&lt;/b&gt;" style="rhombus;whiteSpace=wrap;html=1;strokeColor=#9673a6;fillColor=#e1d5e7;" vertex="1" parent="1">
          <mxGeometry x="822.5" y="1345" width="170" height="90" as="geometry" />
        </mxCell>
        <mxCell id="308n4q9hR7jjv0GFG2vF-82" value="&lt;b&gt;NÃO&lt;/b&gt;" style="text;html=1;strokeColor=none;fillColor=none;align=center;verticalAlign=middle;whiteSpace=wrap;rounded=0;" vertex="1" parent="1">
          <mxGeometry x="692.5" y="1364" width="40" height="40" as="geometry" />
        </mxCell>
        <mxCell id="308n4q9hR7jjv0GFG2vF-83" value="&lt;b&gt;SIM&lt;/b&gt;" style="text;html=1;strokeColor=none;fillColor=none;align=center;verticalAlign=middle;whiteSpace=wrap;rounded=0;" vertex="1" parent="1">
          <mxGeometry x="509.5" y="1470" width="40" height="40" as="geometry" />
        </mxCell>
        <mxCell id="308n4q9hR7jjv0GFG2vF-84" value="&lt;b&gt;&lt;font style=&quot;font-size: 18px&quot;&gt;FIM&lt;/font&gt;&lt;/b&gt;" style="shape=mxgraph.flowchart.terminator;strokeWidth=2;gradientDirection=north;fontStyle=0;html=1;fillColor=#f8cecc;strokeColor=#b85450;" vertex="1" parent="1">
          <mxGeometry x="432.5" y="1800" width="170" height="70" as="geometry" />
        </mxCell>
        <mxCell id="308n4q9hR7jjv0GFG2vF-88" style="edgeStyle=orthogonalEdgeStyle;rounded=0;orthogonalLoop=1;jettySize=auto;html=1;exitX=0.5;exitY=1;exitDx=0;exitDy=0;entryX=0.5;entryY=0;entryDx=0;entryDy=0;" edge="1" parent="1" source="308n4q9hR7jjv0GFG2vF-86" target="308n4q9hR7jjv0GFG2vF-56">
          <mxGeometry relative="1" as="geometry" />
        </mxCell>
        <mxCell id="308n4q9hR7jjv0GFG2vF-86" value="&lt;b&gt;&lt;font style=&quot;font-size: 16px&quot;&gt;MEU APLICATIVO PAROU DE FUNCIONAR&lt;/font&gt;&lt;/b&gt;" style="rounded=0;whiteSpace=wrap;html=1;fillColor=#f8cecc;strokeColor=#b85450;gradientColor=#ea6b66;" vertex="1" parent="1">
          <mxGeometry x="424.5" y="340" width="185" height="90" as="geometry" />
        </mxCell>
        <mxCell id="308n4q9hR7jjv0GFG2vF-91" value="&lt;font style=&quot;font-size: 33px&quot;&gt;Pedro dos Santos - Atividade 04&lt;/font&gt;" style="text;html=1;align=center;verticalAlign=middle;resizable=0;points=[];autosize=1;" vertex="1" parent="1">
          <mxGeometry x="5" y="30" width="490" height="30" as="geometry" />
        </mxCell>
        <mxCell id="308n4q9hR7jjv0GFG2vF-92" value="&lt;font style=&quot;font-size: 33px&quot;&gt;Liderança - Coach e Liberal&lt;/font&gt;" style="text;html=1;align=center;verticalAlign=middle;resizable=0;points=[];autosize=1;" vertex="1" parent="1">
          <mxGeometry x="5" y="70" width="420" height="30" as="geometry" />
        </mxCell>
      </root>
    </mxGraphModel>
  </diagram>
</mxfile>
